<?xml version="1.0" encoding="UTF-8" standalone="no"?>
<svg
   xmlns:dc="http://purl.org/dc/elements/1.1/"
   xmlns:cc="http://creativecommons.org/ns#"
   xmlns:rdf="http://www.w3.org/1999/02/22-rdf-syntax-ns#"
   xmlns:svg="http://www.w3.org/2000/svg"
   xmlns="http://www.w3.org/2000/svg"
   xmlns:sodipodi="http://sodipodi.sourceforge.net/DTD/sodipodi-0.dtd"
   xmlns:inkscape="http://www.inkscape.org/namespaces/inkscape"
   width="24"
   height="24"
   viewBox="0 0 24 24"
   id="svg3427"
   version="1.1"
   inkscape:version="0.91 r13725"
   sodipodi:docname="google-plus.svg">
  <metadata
     id="metadata3435">
    <rdf:RDF>
      <cc:Work
         rdf:about="">
        <dc:format>image/svg+xml</dc:format>
        <dc:type
           rdf:resource="http://purl.org/dc/dcmitype/StillImage" />
        <dc:title></dc:title>
      </cc:Work>
    </rdf:RDF>
  </metadata>
  <defs
     id="defs3433" />
  <sodipodi:namedview
     pagecolor="#ffffff"
     bordercolor="#666666"
     borderopacity="1"
     objecttolerance="10"
     gridtolerance="10"
     guidetolerance="10"
     inkscape:pageopacity="0"
     inkscape:pageshadow="2"
     inkscape:window-width="1920"
     inkscape:window-height="1017"
     id="namedview3431"
     showgrid="false"
     inkscape:zoom="34.583333"
     inkscape:cx="11.913253"
     inkscape:cy="12"
     inkscape:window-x="0"
     inkscape:window-y="27"
     inkscape:window-maximized="1"
     inkscape:current-layer="svg3427" />
  <rect
     style="fill:#ffffff;fill-opacity:1"
     id="rect4256"
     width="19.402411"
     height="12.028915"
     x="2.5156627"
     y="5.4650602" />
  <path
     d="M12 0c-6.627 0-12 5.373-12 12s5.373 12 12 12 12-5.373 12-12-5.373-12-12-12zm-2.917 16.083c-2.258 0-4.083-1.825-4.083-4.083s1.825-4.083 4.083-4.083c1.103 0 2.024.402 2.735 1.067l-1.107 1.068c-.304-.292-.834-.63-1.628-.63-1.394 0-2.531 1.155-2.531 2.579 0 1.424 1.138 2.579 2.531 2.579 1.616 0 2.224-1.162 2.316-1.762h-2.316v-1.4h3.855c.036.204.064.408.064.677.001 2.332-1.563 3.988-3.919 3.988zm9.917-3.5h-1.75v1.75h-1.167v-1.75h-1.75v-1.166h1.75v-1.75h1.167v1.75h1.75v1.166z"
     id="path3429"
     style="fill:#dd5044;fill-opacity:1" />
</svg>
